<svg width="562" height="359" viewBox="0 0 562 359" fill="none" xmlns="http://www.w3.org/2000/svg">
<g filter="url(#filter0_d_108_5)">
<rect x="94" width="357" height="351" rx="111" fill="url(#paint0_radial_108_5)" shape-rendering="crispEdges"/>
<rect x="94" width="357" height="351" rx="111" fill="url(#paint1_radial_108_5)" fill-opacity="0.2" shape-rendering="crispEdges"/>
</g>
<g filter="url(#filter1_d_108_5)">
<path d="M60.0625 238V112.909H114.057C123.341 112.909 131.464 114.741 138.428 118.406C145.391 122.071 150.806 127.222 154.675 133.859C158.543 140.497 160.477 148.254 160.477 157.131C160.477 166.089 158.482 173.846 154.491 180.402C150.542 186.958 144.983 192.007 137.817 195.55C130.691 199.092 122.364 200.864 112.835 200.864H80.5852V174.477H105.994C109.985 174.477 113.385 173.785 116.195 172.401C119.045 170.975 121.223 168.96 122.73 166.354C124.277 163.748 125.051 160.673 125.051 157.131C125.051 153.547 124.277 150.493 122.73 147.969C121.223 145.403 119.045 143.449 116.195 142.105C113.385 140.721 109.985 140.028 105.994 140.028H94.0227V238H60.0625ZM221.068 238H172.938V112.909H220.58C233.447 112.909 244.563 115.413 253.929 120.422C263.335 125.39 270.583 132.556 275.673 141.922C280.804 151.247 283.369 162.424 283.369 175.455C283.369 188.485 280.824 199.683 275.734 209.048C270.644 218.373 263.437 225.54 254.112 230.548C244.787 235.516 233.773 238 221.068 238ZM206.898 209.17H219.847C226.036 209.17 231.309 208.173 235.666 206.178C240.064 204.182 243.403 200.741 245.683 195.855C248.004 190.969 249.165 184.169 249.165 175.455C249.165 166.741 247.984 159.94 245.622 155.054C243.301 150.168 239.881 146.727 235.361 144.732C230.882 142.736 225.384 141.739 218.869 141.739H206.898V209.17ZM299.082 238V112.909H387.037V140.273H333.042V161.773H381.662V189.136H333.042V238H299.082ZM466.959 152C466.633 147.928 465.106 144.752 462.378 142.472C459.691 140.191 455.598 139.051 450.101 139.051C446.599 139.051 443.729 139.479 441.489 140.334C439.29 141.148 437.661 142.268 436.603 143.693C435.544 145.118 434.994 146.747 434.953 148.58C434.872 150.086 435.137 151.45 435.748 152.672C436.399 153.853 437.417 154.932 438.801 155.909C440.186 156.846 441.957 157.701 444.115 158.474C446.274 159.248 448.839 159.94 451.811 160.551L462.073 162.75C468.995 164.216 474.92 166.15 479.847 168.553C484.774 170.955 488.805 173.785 491.941 177.043C495.076 180.259 497.377 183.884 498.843 187.915C500.349 191.946 501.123 196.344 501.164 201.108C501.123 209.333 499.067 216.296 494.995 221.997C490.923 227.698 485.1 232.035 477.526 235.007C469.993 237.98 460.933 239.466 450.346 239.466C439.473 239.466 429.986 237.857 421.882 234.641C413.82 231.424 407.549 226.476 403.07 219.798C398.632 213.08 396.392 204.488 396.351 194.023H428.601C428.805 197.85 429.762 201.067 431.472 203.673C433.182 206.279 435.585 208.254 438.679 209.598C441.815 210.942 445.541 211.614 449.857 211.614C453.481 211.614 456.515 211.166 458.958 210.27C461.401 209.374 463.254 208.132 464.516 206.544C465.778 204.956 466.43 203.144 466.471 201.108C466.43 199.194 465.799 197.525 464.577 196.099C463.396 194.634 461.442 193.33 458.713 192.19C455.985 191.009 452.3 189.91 447.658 188.892L435.198 186.205C424.122 183.802 415.388 179.791 408.995 174.172C402.642 168.512 399.487 160.795 399.527 151.023C399.487 143.082 401.604 136.14 405.88 130.195C410.196 124.209 416.161 119.546 423.776 116.207C431.431 112.868 440.206 111.199 450.101 111.199C460.2 111.199 468.934 112.889 476.304 116.268C483.675 119.648 489.355 124.412 493.346 130.561C497.377 136.669 499.413 143.815 499.453 152H466.959Z" fill="#DFDFDF" fill-opacity="0.62" shape-rendering="crispEdges"/>
<path d="M60.0625 238V112.909H114.057C123.341 112.909 131.464 114.741 138.428 118.406C145.391 122.071 150.806 127.222 154.675 133.859C158.543 140.497 160.477 148.254 160.477 157.131C160.477 166.089 158.482 173.846 154.491 180.402C150.542 186.958 144.983 192.007 137.817 195.55C130.691 199.092 122.364 200.864 112.835 200.864H80.5852V174.477H105.994C109.985 174.477 113.385 173.785 116.195 172.401C119.045 170.975 121.223 168.96 122.73 166.354C124.277 163.748 125.051 160.673 125.051 157.131C125.051 153.547 124.277 150.493 122.73 147.969C121.223 145.403 119.045 143.449 116.195 142.105C113.385 140.721 109.985 140.028 105.994 140.028H94.0227V238H60.0625ZM221.068 238H172.938V112.909H220.58C233.447 112.909 244.563 115.413 253.929 120.422C263.335 125.39 270.583 132.556 275.673 141.922C280.804 151.247 283.369 162.424 283.369 175.455C283.369 188.485 280.824 199.683 275.734 209.048C270.644 218.373 263.437 225.54 254.112 230.548C244.787 235.516 233.773 238 221.068 238ZM206.898 209.17H219.847C226.036 209.17 231.309 208.173 235.666 206.178C240.064 204.182 243.403 200.741 245.683 195.855C248.004 190.969 249.165 184.169 249.165 175.455C249.165 166.741 247.984 159.94 245.622 155.054C243.301 150.168 239.881 146.727 235.361 144.732C230.882 142.736 225.384 141.739 218.869 141.739H206.898V209.17ZM299.082 238V112.909H387.037V140.273H333.042V161.773H381.662V189.136H333.042V238H299.082ZM466.959 152C466.633 147.928 465.106 144.752 462.378 142.472C459.691 140.191 455.598 139.051 450.101 139.051C446.599 139.051 443.729 139.479 441.489 140.334C439.29 141.148 437.661 142.268 436.603 143.693C435.544 145.118 434.994 146.747 434.953 148.58C434.872 150.086 435.137 151.45 435.748 152.672C436.399 153.853 437.417 154.932 438.801 155.909C440.186 156.846 441.957 157.701 444.115 158.474C446.274 159.248 448.839 159.94 451.811 160.551L462.073 162.75C468.995 164.216 474.92 166.15 479.847 168.553C484.774 170.955 488.805 173.785 491.941 177.043C495.076 180.259 497.377 183.884 498.843 187.915C500.349 191.946 501.123 196.344 501.164 201.108C501.123 209.333 499.067 216.296 494.995 221.997C490.923 227.698 485.1 232.035 477.526 235.007C469.993 237.98 460.933 239.466 450.346 239.466C439.473 239.466 429.986 237.857 421.882 234.641C413.82 231.424 407.549 226.476 403.07 219.798C398.632 213.08 396.392 204.488 396.351 194.023H428.601C428.805 197.85 429.762 201.067 431.472 203.673C433.182 206.279 435.585 208.254 438.679 209.598C441.815 210.942 445.541 211.614 449.857 211.614C453.481 211.614 456.515 211.166 458.958 210.27C461.401 209.374 463.254 208.132 464.516 206.544C465.778 204.956 466.43 203.144 466.471 201.108C466.43 199.194 465.799 197.525 464.577 196.099C463.396 194.634 461.442 193.33 458.713 192.19C455.985 191.009 452.3 189.91 447.658 188.892L435.198 186.205C424.122 183.802 415.388 179.791 408.995 174.172C402.642 168.512 399.487 160.795 399.527 151.023C399.487 143.082 401.604 136.14 405.88 130.195C410.196 124.209 416.161 119.546 423.776 116.207C431.431 112.868 440.206 111.199 450.101 111.199C460.2 111.199 468.934 112.889 476.304 116.268C483.675 119.648 489.355 124.412 493.346 130.561C497.377 136.669 499.413 143.815 499.453 152H466.959Z" fill="black" fill-opacity="0.2" shape-rendering="crispEdges"/>
</g>
<g filter="url(#filter2_d_108_5)">
<path d="M80.3125 232V118.545H129.284C137.705 118.545 145.072 120.207 151.388 123.531C157.703 126.855 162.615 131.527 166.124 137.547C169.632 143.567 171.386 150.602 171.386 158.653C171.386 166.778 169.577 173.814 165.957 179.76C162.375 185.706 157.334 190.286 150.834 193.499C144.371 196.712 136.818 198.318 128.176 198.318H98.9261V174.386H121.972C125.591 174.386 128.675 173.759 131.223 172.503C133.808 171.21 135.784 169.382 137.151 167.018C138.554 164.655 139.256 161.866 139.256 158.653C139.256 155.403 138.554 152.634 137.151 150.344C135.784 148.017 133.808 146.244 131.223 145.026C128.675 143.77 125.591 143.142 121.972 143.142H111.114V232H80.3125ZM226.341 232H182.688V118.545H225.898C237.568 118.545 247.651 120.817 256.145 125.359C264.676 129.865 271.25 136.365 275.866 144.859C280.52 153.317 282.847 163.455 282.847 175.273C282.847 187.091 280.538 197.247 275.922 205.741C271.305 214.199 264.768 220.699 256.311 225.241C247.854 229.747 237.864 232 226.341 232ZM213.489 205.852H225.233C230.847 205.852 235.629 204.947 239.581 203.138C243.57 201.328 246.598 198.207 248.666 193.776C250.771 189.344 251.824 183.176 251.824 175.273C251.824 167.369 250.753 161.202 248.611 156.77C246.506 152.338 243.403 149.217 239.304 147.408C235.241 145.598 230.256 144.693 224.347 144.693H213.489V205.852ZM297.098 232V118.545H376.87V143.364H327.899V162.864H371.995V187.682H327.899V232H297.098ZM449.358 154C449.063 150.307 447.678 147.426 445.203 145.358C442.766 143.29 439.054 142.256 434.069 142.256C430.892 142.256 428.289 142.643 426.257 143.419C424.263 144.158 422.786 145.173 421.826 146.466C420.865 147.759 420.367 149.236 420.33 150.898C420.256 152.264 420.496 153.501 421.05 154.609C421.641 155.68 422.564 156.659 423.82 157.545C425.076 158.395 426.682 159.17 428.64 159.872C430.597 160.574 432.924 161.202 435.62 161.756L444.926 163.75C451.205 165.08 456.578 166.834 461.047 169.013C465.516 171.192 469.172 173.759 472.016 176.713C474.86 179.631 476.946 182.918 478.276 186.574C479.642 190.23 480.344 194.219 480.381 198.54C480.344 206 478.479 212.315 474.786 217.486C471.093 222.656 465.811 226.589 458.942 229.286C452.11 231.982 443.892 233.33 434.29 233.33C424.429 233.33 415.824 231.871 408.475 228.953C401.162 226.036 395.475 221.548 391.412 215.491C387.387 209.398 385.355 201.605 385.319 192.114H414.569C414.753 195.585 415.621 198.503 417.172 200.866C418.723 203.23 420.902 205.021 423.709 206.24C426.553 207.459 429.932 208.068 433.847 208.068C437.134 208.068 439.885 207.662 442.101 206.849C444.317 206.037 445.998 204.911 447.142 203.47C448.287 202.03 448.878 200.386 448.915 198.54C448.878 196.804 448.306 195.29 447.198 193.997C446.127 192.668 444.354 191.486 441.88 190.452C439.405 189.381 436.063 188.384 431.853 187.46L420.551 185.023C410.506 182.844 402.584 179.206 396.786 174.109C391.025 168.976 388.162 161.977 388.199 153.114C388.162 145.912 390.083 139.615 393.961 134.223C397.875 128.794 403.286 124.565 410.192 121.537C417.135 118.509 425.094 116.994 434.069 116.994C443.228 116.994 451.15 118.527 457.834 121.592C464.519 124.658 469.671 128.979 473.29 134.555C476.946 140.095 478.793 146.577 478.83 154H449.358Z" fill="#F8FDFF"/>
</g>
<defs>
<filter id="filter0_d_108_5" x="90" y="0" width="365" height="359" filterUnits="userSpaceOnUse" color-interpolation-filters="sRGB">
<feFlood flood-opacity="0" result="BackgroundImageFix"/>
<feColorMatrix in="SourceAlpha" type="matrix" values="0 0 0 0 0 0 0 0 0 0 0 0 0 0 0 0 0 0 127 0" result="hardAlpha"/>
<feOffset dy="4"/>
<feGaussianBlur stdDeviation="2"/>
<feComposite in2="hardAlpha" operator="out"/>
<feColorMatrix type="matrix" values="0 0 0 0 0 0 0 0 0 0 0 0 0 0 0 0 0 0 0.25 0"/>
<feBlend mode="normal" in2="BackgroundImageFix" result="effect1_dropShadow_108_5"/>
<feBlend mode="normal" in="SourceGraphic" in2="effect1_dropShadow_108_5" result="shape"/>
</filter>
<filter id="filter1_d_108_5" x="0.0625" y="61.1989" width="561.101" height="248.267" filterUnits="userSpaceOnUse" color-interpolation-filters="sRGB">
<feFlood flood-opacity="0" result="BackgroundImageFix"/>
<feColorMatrix in="SourceAlpha" type="matrix" values="0 0 0 0 0 0 0 0 0 0 0 0 0 0 0 0 0 0 127 0" result="hardAlpha"/>
<feOffset dy="10"/>
<feGaussianBlur stdDeviation="30"/>
<feComposite in2="hardAlpha" operator="out"/>
<feColorMatrix type="matrix" values="0 0 0 0 0 0 0 0 0 0 0 0 0 0 0 0 0 0 0.53 0"/>
<feBlend mode="normal" in2="BackgroundImageFix" result="effect1_dropShadow_108_5"/>
<feBlend mode="normal" in="SourceGraphic" in2="effect1_dropShadow_108_5" result="shape"/>
</filter>
<filter id="filter2_d_108_5" x="20.3125" y="66.9943" width="520.069" height="236.335" filterUnits="userSpaceOnUse" color-interpolation-filters="sRGB">
<feFlood flood-opacity="0" result="BackgroundImageFix"/>
<feColorMatrix in="SourceAlpha" type="matrix" values="0 0 0 0 0 0 0 0 0 0 0 0 0 0 0 0 0 0 127 0" result="hardAlpha"/>
<feOffset dy="10"/>
<feGaussianBlur stdDeviation="30"/>
<feComposite in2="hardAlpha" operator="out"/>
<feColorMatrix type="matrix" values="0 0 0 0 0 0 0 0 0 0 0 0 0 0 0 0 0 0 0.53 0"/>
<feBlend mode="normal" in2="BackgroundImageFix" result="effect1_dropShadow_108_5"/>
<feBlend mode="normal" in="SourceGraphic" in2="effect1_dropShadow_108_5" result="shape"/>
</filter>
<radialGradient id="paint0_radial_108_5" cx="0" cy="0" r="1" gradientUnits="userSpaceOnUse" gradientTransform="translate(350 63) rotate(103.107) scale(343.961 443.865)">
<stop offset="0.291667" stop-color="#6AA9E3"/>
<stop offset="1" stop-color="#E83737" stop-opacity="0"/>
</radialGradient>
<radialGradient id="paint1_radial_108_5" cx="0" cy="0" r="1" gradientUnits="userSpaceOnUse" gradientTransform="translate(272.5 175.5) rotate(90) scale(175.5 178.5)">
<stop stop-color="#EE0101"/>
<stop offset="1" stop-color="#F45B5B" stop-opacity="0"/>
</radialGradient>
</defs>
</svg>
